<svg width="982" height="1314" viewBox="0 0 982 1314" fill="none" xmlns="http://www.w3.org/2000/svg">
<path d="M585.452 412C605.169 431.571 625.423 457.118 644.5 477.77C647.772 481.312 666.789 502.084 668.072 504.645C676.197 520.817 684.584 543.199 691.133 560.368L691.951 564.943L702.281 559.305C712.746 552.807 726.579 543.936 737.269 538.259L842.677 554.307C858.581 556.758 879.834 559.339 895.168 562.772C894.62 569.537 893.937 576.291 893.135 583.029C885.115 588.578 874.223 594.372 865.618 599.3L826.698 621.921C820.074 625.789 784.988 647.472 780.48 648.434C770.975 650.462 735.476 652.127 724.696 652.779C727.284 668.755 721.2 706.562 720.015 724.453C718.567 746.254 716.849 771.974 713.578 793.696C699.002 892.266 661.441 986.031 603.927 1067.41L595.609 1078.85L632.114 1087.08C635.958 1087.94 651.085 1090.92 653.825 1092.65C679.002 1108.59 700.93 1129.57 725.574 1146.54C727.952 1149.7 728.319 1165.02 723.788 1167.19C720.698 1168.67 715.484 1170.17 712.056 1171.22C668.612 1182.18 623.919 1197.31 581.466 1207.45C570.818 1204.33 512.52 1181.04 506.937 1181.31C505.316 1182.49 504.772 1182.86 503.406 1184.3C444.719 1245.98 346.115 1300.43 261.47 1311.71C196.051 1320.49 129.835 1302.78 77.5348 1262.53C41.6296 1234.88 7.57652 1182.7 0.869128 1137.11C-0.723511 1126.29 0.352257 1094.19 0.391266 1082.04C0.434777 1068.68 0.256981 1045.29 1.23897 1032.31C4.8196 984.996 23.5149 940.296 53.1036 903.224C107.73 834.96 185.96 790.539 267.163 761.501C317.304 743.57 362.06 737.664 414.778 736.114C422.765 735.879 438.17 729.245 446.161 726.447C483.487 713.38 519.537 694.968 552.689 673.482C557.892 669.3 568.387 663.975 572.578 659.185C586.708 643.038 602.542 623.736 615.514 606.97C606.848 591.337 595.903 576.383 586.117 561.368C582.073 555.161 577.62 548.981 574.469 542.268C571.569 536.091 573.814 433.141 573.892 418.415C578.068 415.788 581.043 414.217 585.452 412Z" fill="url(#paint0_linear_1050_7278)"/>
<path d="M406.043 1100.11C431.163 1084.24 460.119 1067.79 484.086 1051.01C496.533 1055.12 508.577 1060.15 521.478 1062.21C528.788 1064.02 553.966 1069.54 559.293 1071.65C560.898 1071.96 569.179 1073.26 570.116 1073.54C576.237 1074.79 582.368 1076 588.507 1077.16C590.974 1077.91 593.034 1078.68 595.609 1078.85L632.115 1087.08C635.959 1087.94 651.085 1090.92 653.825 1092.65C679.003 1108.59 700.93 1129.57 725.574 1146.54C727.952 1149.7 728.32 1165.02 723.789 1167.19C720.698 1168.67 715.484 1170.17 712.056 1171.22C668.613 1182.18 623.919 1197.31 581.466 1207.45C570.818 1204.33 512.52 1181.04 506.938 1181.31C505.316 1182.49 504.772 1182.86 503.406 1184.3C500.301 1182.29 499.295 1183.01 496.598 1181.4C494.973 1178.95 495.872 1177.63 495.117 1174.81C493.151 1172.9 491.56 1172.82 488.87 1172.17L488.2 1173.41C482.829 1171.57 479.174 1171.08 474.024 1168.33C471.534 1166.87 467.773 1165.63 464.99 1164.85C460.257 1164.18 459.996 1163.72 456.425 1160.66C453.522 1159.65 450.629 1158.68 447.799 1157.48L447.836 1179.86C444.983 1181.98 433.58 1190.85 431.346 1191.96C426.121 1184.8 404.165 1151.04 399.824 1147.8C401.535 1147.51 411.31 1140.94 416.172 1139.05C409.369 1122.95 408.108 1117.33 406.043 1100.11Z" fill="#0993F5"/>
<path d="M647.921 1099.04C658.792 1107.74 670.135 1117.78 680.945 1126.68C687.337 1131.93 708.949 1147.65 713.383 1153.16L711.98 1154.11C672.745 1145.6 631.721 1140.26 592.496 1132.42C608.705 1124.04 631.689 1108.84 647.921 1099.04Z" fill="#50C6F9"/>
<path d="M725.574 1146.54C727.952 1149.7 728.319 1165.02 723.788 1167.19C720.698 1168.67 715.484 1170.17 712.055 1171.22L711.98 1154.11L713.383 1153.16C716.437 1152.34 722.828 1148.37 725.574 1146.54Z" fill="#0574E9"/>
<path d="M549.838 1077.91C554.268 1077.75 593.831 1087.54 600.463 1089.13C612.031 1091.92 623.671 1094.39 635.371 1096.56C620.57 1104.28 596.391 1120.59 582.229 1130.02C574.121 1129.09 565.556 1127.36 557.42 1126.12L495.926 1116.97C513.88 1105.15 531.535 1090.07 549.838 1077.91Z" fill="#50C6F9"/>
<path d="M485.019 1060.09C488.376 1060.41 503.682 1065.92 507.934 1067.28C517.872 1070.41 527.904 1073.23 538.014 1075.74C520.24 1086.12 503.022 1102.75 485.614 1114.15C484.121 1115.13 480.476 1113.7 478.819 1113.19C460.515 1108.39 441.792 1102.74 423.402 1097.73C431.766 1093.33 440.99 1087.06 449.082 1081.93C460.871 1074.34 472.854 1067.07 485.019 1060.09Z" fill="#50C6F9"/>
<path d="M491.117 1125.12C515.327 1127.23 552.044 1133.9 576.243 1138.21C576.03 1154.35 573.945 1175.47 573.053 1192.28C572.996 1193.55 573.043 1193.08 572.401 1194.29C570.898 1194.11 497.549 1130.62 491.117 1125.12Z" fill="#FEFEFE"/>
<path d="M415.652 1104.01C420.018 1104.29 434.607 1108.65 439.507 1110.04L481.697 1121.95C482.277 1136.2 482.713 1150.45 483.008 1164.7C480.706 1163.25 470.434 1154.8 467.88 1152.69C448.312 1136.5 431.381 1123.9 415.652 1104.01Z" fill="#01A1FF"/>
<path d="M591.219 1140.99C612.522 1143.46 634.656 1148.55 655.825 1152.28C667.782 1154.38 680.272 1156.36 692.058 1158.97C686.866 1160.9 683.318 1161.95 678.037 1163.39L631.695 1177.96C623.293 1172 600.204 1149.29 591.219 1140.99Z" fill="#FEFEFE"/>
<path d="M585.022 1146.21C596.222 1155.67 612.145 1170.31 622.855 1180.49C619.01 1181.98 614.726 1183.23 610.77 1184.47L582.141 1192.76C582.754 1178.9 583.572 1159.78 585.022 1146.21Z" fill="#50C6F9"/>
<path d="M561.768 1005.27C562.657 1025.06 563.509 1046.23 563.448 1066.03L559.294 1071.65C553.967 1069.54 528.79 1064.02 521.48 1062.21L520.18 1039.36C525.73 1032.55 552.645 1013.55 561.768 1005.27Z" fill="#01A1FF"/>
<path d="M399.823 1147.8C404.163 1151.04 426.119 1184.8 431.344 1191.96L401.162 1211.04C400.597 1203.8 398.717 1152.05 399.823 1147.8Z" fill="#50C6F9"/>
<path d="M474.022 1168.33C479.172 1171.08 482.827 1171.57 488.198 1173.41L488.288 1188.54C480.841 1197.11 465.144 1209.38 456.163 1216.13L456.051 1183.82C461.332 1178.62 468.238 1173.14 474.022 1168.33Z" fill="#01A1FF"/>
<path d="M600.718 1036.47L600.196 1058.7C596.455 1064.95 592.557 1071.1 588.509 1077.16C582.369 1076 576.239 1074.79 570.117 1073.54C572.293 1066.81 594.457 1043.03 600.718 1036.47Z" fill="#01A1FF"/>
<path d="M701.254 574.152C701.959 585.058 701.989 594.995 702.027 605.905C692.214 603.146 683.295 598.645 673.617 595.475C677.773 592.749 689.416 583.366 691.494 578.958L694.427 580.188L701.254 574.152Z" fill="#50C6F9"/>
<path d="M691.95 564.942L702.28 559.305C702.145 562.515 701.98 571.503 701.252 574.152L694.426 580.188C694.816 575.018 691.252 573.615 689.609 566.788L691.95 564.942Z" fill="#0574E9"/>
<path d="M689.61 566.788C685.987 569.039 681.718 572.655 677.645 569.86C678.942 566.087 687.382 563.468 691.133 560.367L691.95 564.942L689.61 566.788Z" fill="#084EC9"/>
<path d="M456.424 1160.66C459.995 1163.72 460.256 1164.18 464.989 1164.85L456.554 1172.37C456.345 1168.63 456.426 1164.45 456.424 1160.66Z" fill="#0574E9"/>
<path d="M93.1708 875.432C100.777 876.041 206.532 924.696 221.006 931.889C200.796 951.801 183.353 968.256 163.999 989.969L159.191 994.896C154.37 992.954 149.046 990.516 144.301 988.296C109.923 972.246 74.399 958.184 39.9453 942.381C51.2828 919.844 75.0029 892.311 93.1708 875.432Z" fill="#FEFEFE"/>
<path d="M172.71 815.423C178.723 814.641 292.929 866.19 304.52 872.18C284.636 884.054 249.531 910.116 230.843 924.434C228.783 925.656 227.557 925.101 225.48 924.111C184.509 904.596 141.795 887.579 100.914 868.026C124.026 846.652 146.41 832.011 172.71 815.423Z" fill="#FEFEFE"/>
<path d="M35.7279 950.195C74.3233 967.505 116.048 984.29 154.074 1002.19C142.862 1025.14 136.311 1041.32 127.285 1065.16L125.436 1070.59C102.325 1061.32 78.5498 1049.98 55.4067 1040.4C41.9372 1034.82 27.872 1027.72 14.1406 1023.03C16.6395 997.603 23.9658 972.883 35.7279 950.195Z" fill="#ADE3F9"/>
<path d="M250.666 776.514C256.602 776.783 364.194 824.217 376.388 829.888C356.516 839.024 334.524 854.063 315.425 865.096C312.971 866.514 313.162 866.455 311.082 865.848C299.481 860.024 284.556 853.786 272.533 848.442C242.744 835.485 213.029 822.358 183.391 809.061C205.143 796.874 227.609 786.006 250.666 776.514Z" fill="#FEFEFE"/>
<path d="M312.672 876.875C336.312 894.231 362.172 912.441 385.031 930.388C368.538 940.468 352.148 950.721 335.865 961.146C328.615 965.721 317.623 973.116 310.262 976.963C302.268 971.721 292.69 966.381 284.417 961.273L235.809 930.793C239.4 928.558 243.408 925.888 246.774 923.361C268.384 907.093 290.132 891.816 312.672 876.875Z" fill="#50C6F9"/>
<path d="M229.674 936.238C233.846 937.581 254.759 951.771 260.121 955.176L303.223 982.033C283.698 998.353 260.994 1012.84 241.998 1030.81C219.295 1022.3 190.126 1008.67 166.816 998.901C171.277 995.098 175.603 989.511 179.729 985.671C193.497 972.838 215.082 947.023 229.674 936.238Z" fill="#50C6F9"/>
<path d="M12.8561 1031.8C20.1081 1034.12 32.5334 1040 39.9789 1043.26C57.9923 1051.22 76.0725 1059.03 94.2172 1066.68C103.678 1070.65 114.674 1075.72 124.354 1078.6C124.425 1098.34 124.285 1118.07 123.933 1137.79C89.6936 1119.61 46.1042 1104.69 12.1216 1085.07C11.9873 1067.31 12.2319 1049.55 12.8561 1031.8Z" fill="#50C6F9"/>
<path d="M626.744 709.474L626.345 708.727C644.315 688.911 660.246 670.079 675.452 647.966C684.575 634.687 695.707 622.453 706.082 610.074L711.296 623.417L710.906 623.921C708.73 620.841 707.26 616.739 706.052 613.145C704.469 613.669 684.372 637.378 682.369 640.348C684.71 641.319 685.385 639.015 685.85 640.327C690.538 653.546 697.778 665.525 702.826 678.632C703.854 681.291 700.493 687.018 700.741 687.59C704.012 695.077 715.985 729.629 713.104 736.049C710.081 742.798 698.385 760.489 693.839 766.325L692.609 766.517C689.518 762.804 686 749.288 685.497 744.126C685.077 739.793 679.458 728.533 679.916 725.079C680.043 722.134 680.621 720.544 678.738 718.022C674.44 722.088 672.317 724.94 668.708 729.584C663.945 733.489 649.351 747.437 646.404 752.165L643.906 753.525C636.753 747.443 623.097 728.77 614.934 720.482C618.117 717.639 624.171 712.534 626.744 709.474Z" fill="#0574E9"/>
<path d="M640.122 697.712L643.36 696.033C646.478 697.258 665.617 724.884 668.708 729.584C663.945 733.489 649.351 747.437 646.404 752.165L643.906 753.525C636.753 747.443 623.097 728.77 614.934 720.482C618.117 717.639 624.171 712.534 626.744 709.474C631.156 706.529 636.169 701.451 640.122 697.712Z" fill="#50C6F9"/>
<path d="M649.422 686.893C655.195 693.398 672.95 713.929 678.741 718.023C674.443 722.089 672.32 724.941 668.711 729.585C665.621 724.885 646.481 697.259 643.363 696.034L640.125 697.713C641.871 693.882 646.328 689.977 649.422 686.893Z" fill="#0993F5"/>
<path d="M679.843 648.119C680.143 648.312 697.817 684.06 699.062 687.22C696.032 692.88 692.213 697.747 688.207 702.715C685.416 706.354 683.961 708.58 681.606 712.533C679.22 703.045 679.535 659.062 679.843 648.119Z" fill="#0993F5"/>
<path d="M383.175 835.784C383.845 835.757 384.515 835.73 385.185 835.703C399.598 845.859 440.615 880.825 451.699 890.158C442.354 895.483 397.894 925.356 392.095 927.141L390.816 925.963C368.548 908.938 341.893 888.073 319.195 872.221C322.565 870.472 326.396 868.074 329.622 866.029C347.115 854.935 364.726 845.183 383.175 835.784Z" fill="#50C6F9"/>
<path d="M330.388 751.336C340.682 752.54 425.824 791.198 440.343 798.357C419.603 807.362 404.751 815.234 384.892 825.249L378.598 822.491C343.642 805.571 299.823 788.036 263.551 772.197C277.375 766.874 316.574 753.47 330.388 751.336Z" fill="#FEFEFE"/>
<path d="M162.321 1005.82C165.616 1007.71 180.007 1013.35 184.145 1015.08L234.989 1036.3C226.276 1051.27 218.333 1066.99 212.146 1083.16C210.732 1086.85 208.756 1093.07 206.854 1096.27C182.361 1089.26 158.025 1081.71 133.867 1073.62C134.979 1071.16 136.147 1067.83 137.074 1065.23C144.352 1044.76 153.036 1025.45 162.321 1005.82Z" fill="#50C6F9"/>
<path d="M566.836 750.328C572.576 746.304 604.99 726.203 609.926 724.131C615.434 729.74 621.298 736.841 626.672 742.828C630.348 744.278 636.782 752.98 639.551 756.399C641.841 755.444 642.456 755.398 643.908 753.526L646.406 752.166L646.594 752.692C647.763 755.909 649.947 758.638 649.043 760.766C646.95 762.334 644.917 763.165 644.518 765.176L645.124 765.769C647.506 773.929 659.011 810.223 657.463 816.849C654.091 821.461 633.349 845.201 628.835 845.501C625.234 840.712 615.917 807.888 610.935 801.02C610.149 800.9 609.471 800.797 608.904 800.71C605.608 803.553 609.933 810.403 611.593 813.918C606.452 811.474 604.351 803.324 609.535 798.962L608.396 796.322C604.647 787.453 593.078 783.444 589.81 774.434C588.344 772.24 569.787 753.376 566.836 750.328Z" fill="#50C6F9"/>
<path d="M646.406 752.166L646.594 752.692C647.763 755.909 649.947 758.638 649.042 760.766C646.949 762.334 644.917 763.165 644.518 765.176L645.124 765.77C647.506 773.93 659.011 810.223 657.462 816.849C654.091 821.462 633.348 845.201 628.835 845.501C625.234 840.713 615.916 807.888 610.935 801.02C610.148 800.9 609.471 800.797 608.904 800.71C605.607 803.553 609.933 810.404 611.593 813.918C606.452 811.474 604.351 803.324 609.535 798.962C617.718 790.863 636.952 769.897 644.633 764.161C643.864 763.288 643.104 762.407 642.354 761.517C640.826 759.681 639.357 758.402 639.551 756.399C641.84 755.444 642.456 755.399 643.908 753.526L646.406 752.166Z" fill="#0574E9"/>
<path d="M626.671 742.828C630.347 744.279 636.781 752.981 639.55 756.399C639.356 758.402 640.826 759.681 642.354 761.517C643.103 762.407 643.863 763.288 644.633 764.161C636.952 769.897 617.718 790.863 609.534 798.963L608.395 796.323C604.646 787.453 593.077 783.444 589.809 774.435C593.275 777.203 597.829 782.916 602.594 786.909C614.871 778.026 626.077 766.763 638.841 757.357C634.328 752.499 630.791 748.026 626.671 742.828Z" fill="#0993F5"/>
<path d="M293.087 1184.59C294.462 1186.09 297.552 1243.02 298.578 1252.27C287.957 1254.73 227.087 1266.87 221.76 1262.34C218.087 1249.63 214.84 1224.1 212.789 1210.18C244.208 1203.26 263.579 1197.66 293.087 1184.59Z" fill="#ADE3F9"/>
<path d="M447.605 803.549C451.025 804.093 499.08 849.531 505.572 855.322C496.387 861.073 464.816 883.282 457.429 885.78L454.25 883.605C434.138 867.705 410.917 847.592 391.637 830.868C397.259 828.61 407.99 822.558 413.807 819.583C424.909 813.899 436.18 808.552 447.605 803.549Z" fill="#50C6F9"/>
<path d="M403.847 743.154C423.982 740.913 433.505 747.725 451.385 755.166L498.196 774.465C484.443 779.747 470.934 785.312 457.283 790.81C450.862 793.396 449.235 793.977 443.747 791.451C423.051 782.115 402.278 772.951 381.429 763.96C371.562 759.747 354.796 753.417 346.125 748.818C365.281 746.15 384.537 744.261 403.847 743.154Z" fill="#FEFEFE"/>
<path d="M505.993 779.467C508.883 779.752 547.259 817.938 553.097 823.406C543.621 829.964 521.328 846.182 511.731 851.111C509.328 850.964 509.068 850.117 506.9 848.351C489.439 833.081 472.148 816.223 455.293 800.182C472.315 792.866 488.926 786.438 505.993 779.467Z" fill="#50C6F9"/>
<path d="M131.922 1209.25C134.886 1209.4 138.376 1209.8 141.341 1210.15C162.355 1212.64 182.787 1212.04 203.848 1210.87C206.44 1228.85 209.601 1245.82 212.564 1263.69C192.339 1264.39 161.905 1260.08 142.331 1255.23C136.914 1236.52 134.581 1228.27 131.922 1209.25Z" fill="#FEFEFE"/>
<path d="M67.727 1122.07C86.0082 1128.94 105.025 1138.88 123.769 1146.38L123.878 1196.05C109.625 1192.44 80.5019 1180.66 67.6813 1173.99C67.556 1156.69 67.5717 1139.38 67.727 1122.07Z" fill="#01A1FF"/>
<path d="M560.402 753.293C563.575 753.726 593.019 786.915 597.669 791.674C588.465 798.33 568.424 813.777 557.951 818.907C557.107 819.32 555.978 818.116 554.959 817.361C541.418 803.691 527.126 790.255 513.395 776.453C527.864 770.199 546.012 760.497 560.402 753.293Z" fill="#50C6F9"/>
<path d="M478.754 722.522C484.583 722.43 542.687 744.925 552.807 748.772C537.638 756.249 522.429 763.644 507.182 770.958C488.675 762.543 451.518 746.883 432.23 740.409C445.148 736.691 465.761 727.779 478.754 722.522Z" fill="#FEFEFE"/>
<path d="M533.13 694.777C555.15 701.229 581.025 710.932 602.524 719.157C592.174 723.966 573.765 737.869 560.973 744.397C537.558 735.285 514.016 726.501 490.355 718.048C504.178 709.958 518.586 703.442 533.13 694.777Z" fill="#FEFEFE"/>
<path d="M315.099 1179.37C322.254 1179.64 339.436 1180.57 345.862 1179.79C345.82 1198.79 346.692 1218.75 347.282 1237.81C332.831 1243.09 322.186 1246.6 307.09 1250.32C306.674 1240.08 305.465 1228.81 304.785 1218.43C304 1206.43 303.566 1193.35 302.219 1181.53C307.294 1180 309.825 1179.21 315.099 1179.37Z" fill="#ADE3F9"/>
<path d="M613.744 624.508C630.441 630.099 652.269 637.119 668.119 643.928C664.465 649.52 643.118 680.186 639.256 681.305C620.136 675.537 602.242 668.527 583.398 662.535C593.435 649.796 603.551 637.121 613.744 624.508Z" fill="#FEFEFE"/>
<path d="M297.621 1261.28L298.435 1261.34C299.473 1262.68 301.827 1290.7 302.493 1295.14C281.948 1300.31 260.209 1304.58 238.908 1305.76C235.79 1305.94 235.553 1305.76 234.106 1303.46C230.781 1295.71 225.303 1280.15 223.613 1272.26C252.119 1270.89 269.894 1267.42 297.621 1261.28Z" fill="#01A1FF"/>
<path d="M12.0341 1095.34C15.3072 1096.57 18.4084 1098.22 21.5502 1099.75C34.3603 1105.99 47.3865 1111.86 60.0151 1118.46C59.4742 1135.54 60.2574 1153.52 59.7796 1170.91C46.7511 1167.1 20.5127 1147.96 12.3342 1136.12C11.5653 1123.5 11.9494 1108.07 12.0341 1095.34Z" fill="#50C6F9"/>
<path d="M825.422 313.014L902.134 357.301V445.876L825.422 401.589V313.014Z" fill="white" stroke="#01A1FF" stroke-width="6" stroke-linejoin="round"/>
<path d="M978.849 313.014L902.137 357.301V445.876L978.849 401.589V313.014Z" fill="#01A1FF" stroke="#01A1FF" stroke-width="6" stroke-linejoin="round"/>
<path d="M902.134 268.727L978.846 313.014L902.134 357.302L825.422 313.014L902.134 268.727Z" fill="white" stroke="#01A1FF" stroke-width="6" stroke-linejoin="round"/>
<path d="M388.33 1154.71L390.641 1155.12L391.029 1155.8C391.619 1174.84 391.652 1196.47 392.775 1215.23C380.613 1222.15 368.134 1228.5 355.378 1234.25C355.011 1221.79 355.325 1189.04 353.742 1178.43C355.886 1172.42 381.734 1160.92 388.33 1154.71Z" fill="#50C6F9"/>
<path d="M748.711 357.301L825.423 401.588V490.163L748.711 445.876V357.301Z" fill="white" stroke="#01A1FF" stroke-width="6" stroke-linejoin="round"/>
<path d="M902.134 357.301L825.422 401.588V490.163L902.134 445.876V357.301Z" fill="#01A1FF" stroke="#01A1FF" stroke-width="6" stroke-linejoin="round"/>
<path d="M825.423 313.014L902.135 357.301L825.423 401.589L748.711 357.301L825.423 313.014Z" fill="white" stroke="#01A1FF" stroke-width="6" stroke-linejoin="round"/>
<path d="M388.33 1154.71L390.641 1155.12L391.029 1155.8C386.167 1159.96 358.893 1177.56 353.742 1178.43C355.886 1172.42 381.734 1160.92 388.33 1154.71Z" fill="#CBF4F8"/>
<path d="M825.422 47.2891L902.134 91.5765V180.151L825.422 135.864V47.2891Z" fill="white" stroke="#01A1FF" stroke-width="6" stroke-linejoin="round"/>
<path d="M978.849 47.2891L902.137 91.5765V180.151L978.849 135.864V47.2891Z" fill="#01A1FF" stroke="#01A1FF" stroke-width="6" stroke-linejoin="round"/>
<path d="M902.134 3L978.846 47.2875L902.134 91.5749L825.422 47.2875L902.134 3Z" fill="white" stroke="#01A1FF" stroke-width="6" stroke-linejoin="round"/>
<path d="M68.8867 1188.42C78.5611 1191.97 88.3457 1196.93 98.4019 1200.32C106.763 1203.13 114.595 1205.12 123.111 1207.31C125.898 1225.93 129.03 1235.43 133.291 1253.3C117.053 1248.76 95.3247 1239.94 79.8551 1233.52C74.207 1220.86 70.6256 1202.08 68.8867 1188.42Z" fill="#FEFEFE"/>
<path d="M672 313.014L748.712 357.301V445.876L672 401.589V313.014Z" fill="white" stroke="#01A1FF" stroke-width="6" stroke-linejoin="round"/>
<path d="M825.423 313.014L748.711 357.301V445.876L825.423 401.589V313.014Z" fill="#01A1FF" stroke="#01A1FF" stroke-width="6" stroke-linejoin="round"/>
<path d="M748.712 268.727L825.424 313.014L748.712 357.302L672 313.014L748.712 268.727Z" fill="white" stroke="#01A1FF" stroke-width="6" stroke-linejoin="round"/>
<path d="M574.08 668.453C576.46 668.868 588.993 673.5 592.269 674.604C607.242 679.647 622.081 685.032 637.182 689.74C633.393 693.702 612.972 713.22 609.286 713.605C587.269 705.461 565.117 697.684 542.84 690.278C553.629 683.556 564.057 676.271 574.08 668.453Z" fill="#FEFEFE"/>
<path d="M748.711 91.5762L825.423 135.864V224.439L748.711 180.151V91.5762Z" fill="white" stroke="#01A1FF" stroke-width="6" stroke-linejoin="round"/>
<path d="M902.134 91.5762L825.422 135.864V224.439L902.134 180.151V91.5762Z" fill="#01A1FF" stroke="#01A1FF" stroke-width="6" stroke-linejoin="round"/>
<path d="M825.423 47.2891L902.135 91.5765L825.423 135.864L748.711 91.5765L825.423 47.2891Z" fill="white" stroke="#01A1FF" stroke-width="6" stroke-linejoin="round"/>
<path d="M146.203 1264.75C168.981 1269.17 191.434 1272.13 214.737 1271.84C216.591 1280.96 222.314 1297.11 225.916 1305.59C201.218 1304.83 186.529 1302.64 162.921 1296.58C155.925 1286.7 151.103 1275.73 146.203 1264.75Z" fill="#ADE3F9"/>
<path d="M678.738 718.023C680.621 720.546 680.044 722.136 679.916 725.081L678.783 721.465C677.088 721.198 677.418 721.428 675.505 722.446C673.299 731.374 690.374 766.921 686.99 778.091C686.27 780.456 666.938 804.089 663.682 804.894C658.496 801.748 652.626 766.747 648.32 763.491C646.69 764.31 646.403 764.376 645.122 765.771L644.516 765.177C644.915 763.166 646.947 762.335 649.04 760.767C649.945 758.639 647.761 755.91 646.591 752.693L646.404 752.167C649.351 747.438 663.945 733.491 668.708 729.585C672.317 724.941 674.44 722.089 678.738 718.023Z" fill="#0574E9"/>
<path d="M623.184 864.777C628.484 868.264 630.618 907.17 631.481 914.527C631.938 918.427 609.723 945.93 606.194 947.842C604.557 943.492 597.2 894.862 597.059 889.162C599.37 883.702 617.816 868.733 623.184 864.777Z" fill="#0574E9"/>
<path d="M598.613 967.738C600.845 970.603 600.791 1017.01 600.902 1024.06C592.01 1035 581.535 1046.88 572.059 1057.3C570.778 1054.5 569.875 1003.72 569.797 996.936C578.114 989.443 590.073 976.243 598.613 967.738Z" fill="#01A1FF"/>
<path d="M641.663 593.953C658.286 597.845 678.524 606.055 695.013 612.094C691.915 615.816 676.866 634.47 674.301 636.366C658.635 632.664 635.812 622.442 618.781 617.656L641.663 593.953Z" fill="#FEFEFE"/>
<path d="M672 224.438L748.712 268.725V357.3L672 313.012V224.438Z" fill="white" stroke="#01A1FF" stroke-width="6" stroke-linejoin="round"/>
<path d="M825.423 224.438L748.711 268.725V357.3L825.423 313.012V224.438Z" fill="#01A1FF" stroke="#01A1FF" stroke-width="6" stroke-linejoin="round"/>
<path d="M748.712 180.15L825.424 224.438L748.712 268.725L672 224.438L748.712 180.15Z" fill="white" stroke="#01A1FF" stroke-width="6" stroke-linejoin="round"/>
<path d="M737.998 547.748C760.413 551.005 782.746 555.131 805.124 558.709L774.607 576.127C771.861 577.961 768.875 579.452 765.95 580.999C748.41 576.703 728.756 568.418 709.934 563.225C718.786 559.566 729.656 552.71 737.998 547.748Z" fill="#FEFEFE"/>
<path d="M656.805 827.111C658.051 827.457 658.055 827.675 658.987 828.629C661.027 839.919 662.46 860.891 662.91 872.256C663.113 877.38 642.242 903.997 637.733 907.972C637.384 906.877 637.089 905.774 636.847 904.649C634.048 891.352 631.718 868.292 631.787 854.894C631.793 853.87 653.581 832.334 656.805 827.111Z" fill="#0574E9"/>
<path d="M447.655 1190.04C448.472 1194.92 448.081 1216.65 448.063 1222.61C432.584 1233.78 418.946 1243.34 402.124 1252.42C401.949 1241.79 401.702 1231.15 401.383 1220.53C416.557 1212.34 433.778 1200.1 447.655 1190.04Z" fill="#01A1FF"/>
<path d="M618.883 470.412C622.531 472.208 649.521 503.243 653.764 507.991C648.44 511.776 644.9 514.172 639.217 517.387C634.777 515.651 631.765 514.075 627.591 511.881C617.471 505.714 596.249 495.48 584.992 489.533C594.921 483.31 608.432 476.242 618.883 470.412Z" fill="#FEFEFE"/>
<path d="M630.739 929.496C632.172 931.086 632.485 977.346 632.589 982.604C624.731 992.391 617.19 1003.57 608.993 1013.86C607.541 1010.02 607.151 966.599 606.68 958.259C614.403 948.426 622.426 938.834 630.739 929.496Z" fill="#01A1FF"/>
<path d="M345.721 1247.63L347.206 1248.13C348.297 1252.58 348.049 1273.42 348.057 1279.33C335.77 1283.98 323.325 1288.2 310.743 1291.99C310.157 1281.65 308.511 1269.35 307.336 1258.96C321.333 1255.49 332.116 1252.72 345.721 1247.63Z" fill="#01A1FF"/>
<path d="M687.861 787.562C690.899 788.574 689.991 792.29 689.931 794.822C689.046 803.574 691.957 821.089 689.826 829.074C687.343 838.415 673.877 857.701 668.521 865.686C664.89 855.371 665.933 832.721 664.418 820.989C663.637 814.927 682.94 792.422 687.861 787.562Z" fill="#0574E9"/>
<path d="M392.212 1225.06C394.239 1228.4 393.573 1251.7 393.555 1257.26C384.205 1262.95 368.543 1269.87 358.219 1274.63L356.913 1274.48C355.872 1272.13 355.918 1248.68 355.84 1243.87C368.173 1237.7 380.255 1231.96 392.212 1225.06Z" fill="#01A1FF"/>
<path d="M661.104 888.074C663.212 893.812 661.591 925.364 663.144 935.257C656.822 946.454 647.391 959.812 640.283 971.069C639.484 967.117 639.422 954.959 639.324 950.722L638.367 919.364C645.035 909.014 653.982 899.279 661.104 888.074Z" fill="#01A1FF"/>
<path d="M813.226 560.455C818.5 560.267 834.126 562.88 839.842 563.783C852.655 565.877 865.491 567.788 878.349 569.514L828.417 578.597C814.831 580.505 793.338 584.095 780.57 587.439L773.309 583.698C785.987 576.546 801.245 568.327 813.226 560.455Z" fill="#FEFEFE"/>
<path d="M84.2227 1244.09C87.1874 1244.79 100.163 1250.2 103.759 1251.58C114.798 1255.79 126.004 1259.55 137.351 1262.85C139.459 1270.93 147.306 1285.51 151.482 1292.79C135.865 1287.94 110.504 1277.41 98.5857 1265.77C93.5092 1260.81 87.7208 1250.5 84.2227 1244.09Z" fill="#CBF4F8"/>
<path d="M33.2578 1170.63C42.4948 1174.93 51.9539 1179.16 60.515 1184.67C62.1406 1199.62 66.3281 1214.82 70.2621 1229.31C65.0011 1227.68 51.5443 1219.6 47.2877 1216.46C35.4123 1207.72 34.8865 1185.17 33.2578 1170.63Z" fill="#FEFEFE"/>
<path d="M321.233 1115.62C331.333 1114.1 340.786 1120.96 342.472 1131.03C344.159 1141.1 337.457 1150.66 327.413 1152.52C320.764 1153.75 313.969 1151.29 309.639 1146.1C305.309 1140.91 304.116 1133.79 306.519 1127.47C308.922 1121.15 314.547 1116.62 321.233 1115.62Z" fill="black"/>
<path d="M316.71 1124.34C318.264 1123.28 320.269 1123.15 321.943 1124.01C323.617 1124.86 324.692 1126.56 324.75 1128.43C324.809 1130.32 323.839 1132.07 322.222 1133.03C319.827 1134.44 316.743 1133.7 315.254 1131.35C313.765 1129 314.409 1125.9 316.71 1124.34Z" fill="#FEFEFE"/>
<path d="M315.1 1179.37L314.023 1178.31L314.262 1177.08C331.528 1169.06 348.689 1162.06 365.348 1152.52C371.499 1149.01 379.5 1144.57 385.988 1141.96C386.406 1145.56 386.757 1151.77 388.332 1154.71C381.736 1160.92 355.888 1172.42 353.744 1178.43C350.505 1179.22 349.197 1179.49 345.863 1179.79C339.437 1180.57 322.254 1179.64 315.1 1179.37Z" fill="#01A1FF"/>
<path d="M584.496 432.68C587.785 434.448 610.55 460.845 615.166 465.929L603.51 472.341C597.295 475.511 591.124 478.766 584.999 482.105C584.345 465.595 585.225 449.231 584.496 432.68Z" fill="#FEFEFE"/>
<path d="M686.181 848.717C687.336 854.898 686.173 878.198 685.01 884.616C683.06 895.378 675.648 914.991 670.082 924.366C669.092 908.661 669.099 891.756 668.852 875.925C673.833 867.025 680.862 857.821 686.181 848.717Z" fill="#01A1FF"/>
<path d="M644.691 528.906C649.299 533.008 666.452 561.297 671.935 568.633L663.563 572.584C656.725 575.589 651.057 578.252 644.429 581.681C643.627 564.096 643.714 546.482 644.691 528.906Z" fill="#50C6F9"/>
<path d="M709.97 752.91L712.446 754.558C712.453 762.896 709.535 784.359 708.665 793.603C708.462 795.779 699.062 813.787 697.232 817.334L696.204 817.19C693.218 814.676 694.539 779.775 695.747 774.776C696.002 773.71 708.29 755.201 709.97 752.91Z" fill="#0574E9"/>
<path d="M631.447 996.891C635.306 1015.3 618.696 1035.39 608.813 1049.88C607.518 1047.06 608.373 1030.67 608.492 1026.46L631.447 996.891Z" fill="#01A1FF"/>
<path d="M676.084 573.997C679.197 573.81 681.395 573.243 683.278 575.84C682.746 581.024 674.569 589.657 670.863 594.149L662.101 591.199L649.965 587.464C658.755 583.143 667.464 578.653 676.084 573.997Z" fill="#FEFEFE"/>
<path d="M10.4766 1154.41C11.6769 1155.09 23.4217 1164.51 26.1269 1166.47C26.7638 1177.69 28.3947 1188.64 30.0556 1199.73C24.1276 1192.73 12.8201 1164.01 10.4766 1154.41Z" fill="#CBF4F8"/>
<path d="M660.721 952.693C661.021 958.843 642.69 995.263 638.957 1002.42C638.753 997.393 639.05 991.221 639.16 986.113C646.386 974.826 653.776 964.213 660.721 952.693Z" fill="#01A1FF"/>
<path d="M52.6523 1228.69C56.1647 1229.71 68.8743 1237.09 73.3184 1239.24C77.4316 1246.52 80.7324 1252.26 85.4398 1259.13C77.9275 1256.05 57.7041 1235.65 52.6523 1228.69Z" fill="#CBF4F8"/>
<defs>
<linearGradient id="paint0_linear_1050_7278" x1="628.288" y1="1060.2" x2="268.763" y2="690.733" gradientUnits="userSpaceOnUse">
<stop stop-color="#0267E3"/>
<stop offset="1" stop-color="#0FA9FF"/>
</linearGradient>
</defs>
</svg>
